<svg height="112" viewBox="0 0 448 112" width="448" xmlns="http://www.w3.org/2000/svg"><g fill="#333"><g transform="translate(129 34)"><path d="m15.194 18.867c-4.721 0-7.906 3.6-7.906 8.143 0 4.544 3.245 8.202 7.848 8.202 2.891 0 5.192-1.003 6.962-2.773l3.659 5.311c-2.242 2.479-6.314 4.249-10.799 4.249-8.378 0-14.869-6.727-14.869-14.929 0-8.261 6.491-14.987 14.752-14.987 4.838 0 8.674 1.652 11.151 4.248l-4.13 5.134c-1.77-1.712-3.894-2.598-6.668-2.598z"/><path d="m31.182.575h7.199v40.597h-7.199z"/><path d="m44.929 27.069c0-8.261 6.137-14.987 14.279-14.987 8.084 0 14.221 6.254 14.221 14.397 0 .885-.06 1.888-.177 2.36h-20.947c.708 3.953 3.717 6.785 8.084 6.785 2.832 0 5.251-1.239 6.903-2.95l3.718 4.897c-2.125 2.479-6.137 4.426-10.916 4.426-8.792.001-15.165-6.726-15.165-14.928zm7.494-2.773h13.63c-.826-4.013-3.363-6.077-6.727-6.077-3.599 0-6.077 2.477-6.903 6.077z"/><path d="m104.817 12.908-10.208 28.264h-9.323l-10.268-28.264h7.907l7.198 21.832 7.317-21.832z"/><path d="m106.82 27.069c0-8.261 6.137-14.987 14.279-14.987 8.084 0 14.221 6.254 14.221 14.397 0 .885-.06 1.888-.177 2.36h-20.947c.708 3.953 3.717 6.785 8.084 6.785 2.832 0 5.251-1.239 6.903-2.95l3.718 4.897c-2.125 2.479-6.137 4.426-10.916 4.426-8.792.001-15.165-6.726-15.165-14.928zm7.494-2.773h13.63c-.826-4.013-3.363-6.077-6.727-6.077-3.599 0-6.076 2.477-6.903 6.077zm34.397 16.876h-7.198v-28.264h7.198v3.068c1.593-2.36 3.953-3.895 6.903-3.895 1.889 0 3.423.531 4.544 1.416l-3.01 6.845c-.943-.768-2.359-1.239-3.717-1.239-2.892 0-4.721 2.419-4.721 6.255v15.814zm42.657-22.305c-4.721 0-7.907 3.6-7.907 8.143 0 4.544 3.245 8.202 7.848 8.202 2.892 0 5.192-1.003 6.963-2.773l3.658 5.311c-2.242 2.479-6.313 4.249-10.798 4.249-8.379 0-14.869-6.727-14.869-14.929 0-8.261 6.49-14.987 14.751-14.987 4.839 0 8.674 1.652 11.152 4.248l-4.131 5.134c-1.769-1.712-3.894-2.598-6.667-2.598z"/><path d="m207.355.575h7.199v40.597h-7.199z"/><path d="m221.103 27.069c0-8.261 6.49-14.987 14.692-14.987 8.201 0 14.751 6.727 14.751 14.987 0 8.202-6.55 14.929-14.751 14.929-8.202 0-14.692-6.727-14.692-14.929zm22.185-.059c0-4.543-3.127-8.143-7.435-8.143-4.366 0-7.553 3.6-7.553 8.143 0 4.544 3.187 8.202 7.553 8.202 4.308 0 7.435-3.658 7.435-8.202zm20.589 1.18c0 4.13 2.419 6.903 6.019 6.903s6.019-2.773 6.019-6.903v-15.282h7.199v15.813c0 7.906-5.252 13.158-13.218 13.158s-13.217-5.252-13.217-13.158v-15.813h7.198zm54.872-27.615v40.597h-7.258v-3.068c-2.065 2.419-4.957 3.895-8.615 3.895-7.493 0-13.571-6.137-13.571-14.929 0-8.556 5.724-14.987 13.571-14.987 3.718 0 6.608 1.356 8.615 3.658v-15.165h7.258zm-7.258 26.435c0-4.543-3.128-8.143-7.435-8.143-4.367 0-7.553 3.6-7.553 8.143 0 4.544 3.186 8.202 7.553 8.202 4.307 0 7.435-3.658 7.435-8.202z"/></g><path d="m2.114 26.17 14.934 25.866 29.865-51.731z"/><path d="m14.738 56.037-14.356-24.866v49.733z"/><path d="m20.511 58.035 29.868 51.734 29.868-51.734z"/><path d="m80.245 54.035-29.866-51.732-29.866 51.732z"/><path d="m86.02 56.037 14.356 24.867v-49.733z"/><path d="m98.644 85.904-14.934-25.866-29.867 51.732 46.537-26.865-.001-.002z"/><path d="m83.71 52.036 14.934-25.866 1.735 1.002.001-.001-46.537-26.869z"/><path d="m17.048 60.038-14.934 25.866-1.732-1v.001l46.533 26.865z"/></g></svg>